<svg xmlns="http://www.w3.org/2000/svg" width="97mm" height="61mm" viewBox="0 0 970 610">
<defs>
  <linearGradient id="sky" x1="0" y1="0" x2="0" y2="1">
    <stop offset="0" stop-color="#050b16"/><stop offset="0.45" stop-color="#0a1424"/>
    <stop offset="0.75" stop-color="#0b1730"/><stop offset="1" stop-color="#050b16"/>
  </linearGradient>
  <radialGradient id="haze" cx="0.72" cy="0.42" r="0.75">
    <stop offset="0" stop-color="rgba(34,200,255,0.10)"/><stop offset="1" stop-color="rgba(34,200,255,0)"/>
  </radialGradient>
  <linearGradient id="bl" x1="0" y1="0" x2="1" y2="0">
    <stop offset="0" stop-color="#28efef" stop-opacity="0"/><stop offset="0.15" stop-color="#28efef" stop-opacity="0.55"/>
    <stop offset="0.5" stop-color="#28efef" stop-opacity="1"/><stop offset="0.85" stop-color="#28efef" stop-opacity="0.55"/>
    <stop offset="1" stop-color="#28efef" stop-opacity="0"/>
  </linearGradient>
  <filter id="soft" x="-60%" y="-60%" width="220%" height="220%"><feGaussianBlur stdDeviation="1.6"/></filter>
  <filter id="glow" x="-40%" y="-80%" width="180%" height="260%">
    <feGaussianBlur stdDeviation="5.2" result="b"/>
    <feMerge><feMergeNode in="b"/><feMergeNode in="b"/><feMergeNode in="SourceGraphic"/></feMerge>
  </filter>
</defs>
<rect width="970" height="610" fill="url(#sky)"/>
<rect width="970" height="610" fill="url(#haze)"/>
<circle cx="327" cy="369" r="1.5" fill="rgba(234,247,248,0.79)"/>
<circle cx="931" cy="179" r="2.2" fill="rgba(234,247,248,0.21)"/>
<circle cx="60" cy="407" r="2.9" fill="rgba(234,247,248,0.69)"/>
<circle cx="350" cy="127" r="2.8" fill="rgba(234,247,248,0.20)"/>
<circle cx="208" cy="117" r="4.8" fill="rgba(234,247,248,0.45)"/>
<circle cx="914" cy="393" r="2.4" fill="rgba(234,247,248,0.27)"/>
<circle cx="697" cy="311" r="2.6" fill="rgba(234,247,248,0.19)"/>
<circle cx="389" cy="75" r="2.4" fill="rgba(234,247,248,0.36)"/>
<circle cx="480" cy="340" r="4.6" fill="rgba(234,247,248,0.36)"/>
<circle cx="309" cy="153" r="3.6" fill="rgba(234,247,248,0.48)"/>
<circle cx="123" cy="439" r="3.8" fill="rgba(234,247,248,0.57)"/>
<circle cx="802" cy="57" r="2.2" fill="rgba(234,247,248,0.47)"/>
<circle cx="489" cy="308" r="2.6" fill="rgba(234,247,248,0.33)"/>
<circle cx="917" cy="305" r="3.2" fill="rgba(234,247,248,0.26)"/>
<circle cx="227" cy="372" r="2.5" fill="rgba(234,247,248,0.47)"/>
<circle cx="317" cy="324" r="2.7" fill="rgba(234,247,248,0.48)"/>
<circle cx="478" cy="553" r="3.0" fill="rgba(234,247,248,0.46)"/>
<circle cx="486" cy="397" r="2.6" fill="rgba(234,247,248,0.19)"/>
<circle cx="96" cy="171" r="3.7" fill="rgba(234,247,248,0.61)"/>
<circle cx="645" cy="335" r="2.8" fill="rgba(234,247,248,0.48)"/>
<circle cx="130" cy="324" r="3.8" fill="rgba(234,247,248,0.37)"/>
<circle cx="512" cy="203" r="4.6" fill="rgba(234,247,248,0.19)"/>
<circle cx="325" cy="397" r="2.4" fill="rgba(234,247,248,0.79)"/>
<circle cx="440" cy="289" r="4.3" fill="rgba(234,247,248,0.34)"/>
<circle cx="703" cy="458" r="3.6" fill="rgba(234,247,248,0.74)"/>
<circle cx="440" cy="304" r="6.3" fill="rgba(140,230,240,0.17)"/><circle cx="440" cy="304" r="2.0" fill="rgba(234,247,248,0.69)"/>
<circle cx="107" cy="524" r="3.2" fill="rgba(234,247,248,0.27)"/>
<circle cx="208" cy="280" r="1.6" fill="rgba(234,247,248,0.27)"/>
<circle cx="665" cy="107" r="4.3" fill="rgba(234,247,248,0.58)"/>
<circle cx="901" cy="295" r="1.5" fill="rgba(234,247,248,0.21)"/>
<circle cx="135" cy="184" r="3.9" fill="rgba(234,247,248,0.64)"/>
<circle cx="538" cy="213" r="4.8" fill="rgba(234,247,248,0.19)"/>
<circle cx="920" cy="138" r="4.6" fill="rgba(234,247,248,0.55)"/>
<circle cx="604" cy="278" r="4.6" fill="rgba(234,247,248,0.22)"/>
<circle cx="728" cy="432" r="3.9" fill="rgba(234,247,248,0.61)"/>
<circle cx="575" cy="342" r="4.5" fill="rgba(234,247,248,0.32)"/>
<circle cx="325" cy="148" r="13.4" fill="rgba(140,230,240,0.12)"/><circle cx="325" cy="148" r="4.2" fill="rgba(234,247,248,0.48)"/>
<circle cx="836" cy="317" r="4.5" fill="rgba(234,247,248,0.64)"/>
<circle cx="324" cy="331" r="5.0" fill="rgba(234,247,248,0.68)"/>
<circle cx="549" cy="329" r="2.6" fill="rgba(234,247,248,0.52)"/>
<circle cx="719" cy="485" r="4.8" fill="rgba(234,247,248,0.34)"/>
<circle cx="97" cy="188" r="3.7" fill="rgba(234,247,248,0.18)"/>
<circle cx="520" cy="166" r="3.1" fill="rgba(234,247,248,0.65)"/>
<circle cx="853" cy="389" r="3.5" fill="rgba(234,247,248,0.30)"/>
<circle cx="236" cy="75" r="4.7" fill="rgba(234,247,248,0.40)"/>
<circle cx="471" cy="339" r="2.9" fill="rgba(234,247,248,0.69)"/>
<circle cx="385" cy="336" r="2.5" fill="rgba(234,247,248,0.74)"/>
<circle cx="576" cy="345" r="1.9" fill="rgba(234,247,248,0.39)"/>
<circle cx="565" cy="169" r="2.1" fill="rgba(234,247,248,0.72)"/>
<circle cx="829" cy="132" r="3.5" fill="rgba(234,247,248,0.45)"/>
<circle cx="361" cy="380" r="11.6" fill="rgba(140,230,240,0.06)"/><circle cx="361" cy="380" r="3.6" fill="rgba(234,247,248,0.23)"/>
<circle cx="196" cy="471" r="4.7" fill="rgba(234,247,248,0.60)"/>
<circle cx="513" cy="380" r="2.1" fill="rgba(234,247,248,0.78)"/>
<circle cx="70" cy="174" r="2.5" fill="rgba(234,247,248,0.71)"/>
<circle cx="882" cy="267" r="11.2" fill="rgba(140,230,240,0.08)"/><circle cx="882" cy="267" r="3.5" fill="rgba(234,247,248,0.30)"/>
<circle cx="608" cy="330" r="4.7" fill="rgba(234,247,248,0.75)"/>
<circle cx="88" cy="342" r="4.9" fill="rgba(234,247,248,0.47)"/>
<circle cx="497" cy="277" r="3.1" fill="rgba(234,247,248,0.32)"/>
<circle cx="750" cy="434" r="5.2" fill="rgba(140,230,240,0.08)"/><circle cx="750" cy="434" r="1.6" fill="rgba(234,247,248,0.31)"/>
<circle cx="120" cy="43" r="4.2" fill="rgba(234,247,248,0.31)"/>
<circle cx="781" cy="121" r="2.4" fill="rgba(234,247,248,0.25)"/>
<circle cx="916" cy="507" r="5.1" fill="rgba(234,247,248,0.29)"/>
<circle cx="533" cy="73" r="3.9" fill="rgba(234,247,248,0.72)"/>
<circle cx="811" cy="200" r="4.5" fill="rgba(234,247,248,0.31)"/>
<g>
<line x1="659.0" y1="223.9" x2="664.4" y2="233.6" stroke="rgba(40,239,239,0.20)" stroke-width="1.2" stroke-linecap="round"/>
<line x1="664.4" y1="233.6" x2="666.6" y2="245.1" stroke="rgba(40,239,239,0.20)" stroke-width="1.2" stroke-linecap="round"/>
<line x1="666.6" y1="245.1" x2="688.4" y2="254.4" stroke="rgba(40,239,239,0.20)" stroke-width="1.2" stroke-linecap="round"/>
<line x1="688.4" y1="254.4" x2="686.6" y2="243.5" stroke="rgba(40,239,239,0.20)" stroke-width="1.2" stroke-linecap="round"/>
<line x1="686.6" y1="243.5" x2="664.4" y2="233.6" stroke="rgba(40,239,239,0.20)" stroke-width="1.2" stroke-linecap="round"/>
<line x1="587.8" y1="336.9" x2="622.6" y2="330.2" stroke="rgba(40,239,239,0.20)" stroke-width="1.2" stroke-linecap="round"/>
<line x1="622.6" y1="330.2" x2="659.4" y2="313.7" stroke="rgba(40,239,239,0.20)" stroke-width="1.2" stroke-linecap="round"/>
<line x1="659.4" y1="313.7" x2="704.9" y2="296.8" stroke="rgba(40,239,239,0.20)" stroke-width="1.2" stroke-linecap="round"/>
<line x1="610.1" y1="285.4" x2="622.6" y2="330.2" stroke="rgba(40,239,239,0.20)" stroke-width="1.2" stroke-linecap="round"/>
<line x1="622.6" y1="330.2" x2="643.4" y2="368.7" stroke="rgba(40,239,239,0.20)" stroke-width="1.2" stroke-linecap="round"/>
<line x1="794.4" y1="344.1" x2="802.9" y2="353.7" stroke="rgba(40,239,239,0.20)" stroke-width="1.2" stroke-linecap="round"/>
<line x1="802.9" y1="353.7" x2="816.1" y2="365.0" stroke="rgba(40,239,239,0.20)" stroke-width="1.2" stroke-linecap="round"/>
<line x1="802.9" y1="353.7" x2="850.6" y2="328.2" stroke="rgba(40,239,239,0.20)" stroke-width="1.2" stroke-linecap="round"/>
<line x1="850.6" y1="328.2" x2="857.3" y2="406.1" stroke="rgba(40,239,239,0.20)" stroke-width="1.2" stroke-linecap="round"/>
<line x1="850.6" y1="328.2" x2="922.2" y2="304.9" stroke="rgba(40,239,239,0.20)" stroke-width="1.2" stroke-linecap="round"/>
<line x1="587.8" y1="336.9" x2="659.0" y2="223.9" stroke="rgba(40,239,239,0.42)" stroke-width="1.2" stroke-dasharray="4 13" stroke-linecap="round"/>
<line x1="659.0" y1="223.9" x2="802.9" y2="353.7" stroke="rgba(40,239,239,0.42)" stroke-width="1.2" stroke-dasharray="4 13" stroke-linecap="round"/>
<line x1="802.9" y1="353.7" x2="587.8" y2="336.9" stroke="rgba(40,239,239,0.42)" stroke-width="1.2" stroke-dasharray="4 13" stroke-linecap="round"/>
<circle cx="664.4" cy="233.6" r="1.2" fill="rgba(40,239,239,0.5)"/>
<circle cx="666.6" cy="245.1" r="1.1" fill="rgba(40,239,239,0.5)"/>
<circle cx="688.4" cy="254.4" r="1.6" fill="rgba(40,239,239,0.5)"/>
<circle cx="686.6" cy="243.5" r="1.5" fill="rgba(40,239,239,0.5)"/>
<circle cx="622.6" cy="330.2" r="2.2" fill="rgba(40,239,239,0.5)"/>
<circle cx="610.1" cy="285.4" r="1.8" fill="rgba(40,239,239,0.5)"/>
<circle cx="643.4" cy="368.7" r="1.9" fill="rgba(40,239,239,0.5)"/>
<circle cx="704.9" cy="296.8" r="1.8" fill="rgba(40,239,239,0.5)"/>
<circle cx="659.4" cy="313.7" r="1.4" fill="rgba(40,239,239,0.5)"/>
<circle cx="794.4" cy="344.1" r="1.9" fill="rgba(40,239,239,0.5)"/>
<circle cx="816.1" cy="365.0" r="1.4" fill="rgba(40,239,239,0.5)"/>
<circle cx="857.3" cy="406.1" r="1.6" fill="rgba(40,239,239,0.5)"/>
<circle cx="850.6" cy="328.2" r="1.5" fill="rgba(40,239,239,0.5)"/>
<circle cx="922.2" cy="304.9" r="1.5" fill="rgba(40,239,239,0.5)"/>
<g stroke="rgba(140,230,240,0.35)" stroke-width="1"><line x1="641.5" y1="223.9" x2="676.5" y2="223.9"/><line x1="659.0" y1="206.4" x2="659.0" y2="241.4"/></g>
<circle cx="659.0" cy="223.9" r="8" fill="rgba(34,200,255,0.35)" filter="url(#soft)"/>
<circle cx="659.0" cy="223.9" r="4.2" fill="rgba(234,247,248,0.95)"/>
<text x="659.0" y="197.9" text-anchor="middle" font-family="Noto Sans CJK TC Light" font-size="15" fill="rgba(234,247,248,0.85)">織女一</text>
<g stroke="rgba(140,230,240,0.35)" stroke-width="1"><line x1="570.3" y1="336.9" x2="605.3" y2="336.9"/><line x1="587.8" y1="319.4" x2="587.8" y2="354.4"/></g>
<circle cx="587.8" cy="336.9" r="8" fill="rgba(34,200,255,0.35)" filter="url(#soft)"/>
<circle cx="587.8" cy="336.9" r="4.2" fill="rgba(234,247,248,0.95)"/>
<text x="587.8" y="370.9" text-anchor="middle" font-family="Noto Sans CJK TC Light" font-size="15" fill="rgba(234,247,248,0.85)">天津四</text>
<g stroke="rgba(140,230,240,0.35)" stroke-width="1"><line x1="785.4" y1="353.7" x2="820.4" y2="353.7"/><line x1="802.9" y1="336.2" x2="802.9" y2="371.2"/></g>
<circle cx="802.9" cy="353.7" r="8" fill="rgba(34,200,255,0.35)" filter="url(#soft)"/>
<circle cx="802.9" cy="353.7" r="4.2" fill="rgba(234,247,248,0.95)"/>
<text x="820.9" y="359.7" text-anchor="start" font-family="Noto Sans CJK TC Light" font-size="15" fill="rgba(234,247,248,0.85)">河鼓二</text>
</g>
<line x1="42" y1="30" x2="56" y2="30" stroke="#28efef" stroke-width="1.6"/>
<line x1="42" y1="40" x2="48" y2="40" stroke="rgba(255,255,255,0.22)" stroke-width="1.0"/>
<line x1="42" y1="50" x2="48" y2="50" stroke="rgba(255,255,255,0.22)" stroke-width="1.0"/>
<line x1="42" y1="60" x2="48" y2="60" stroke="rgba(255,255,255,0.22)" stroke-width="1.0"/>
<line x1="42" y1="70" x2="52" y2="70" stroke="rgba(255,255,255,0.55)" stroke-width="1.2"/>
<line x1="42" y1="80" x2="48" y2="80" stroke="rgba(255,255,255,0.22)" stroke-width="1.0"/>
<line x1="42" y1="90" x2="48" y2="90" stroke="rgba(255,255,255,0.22)" stroke-width="1.0"/>
<line x1="42" y1="100" x2="48" y2="100" stroke="rgba(255,255,255,0.22)" stroke-width="1.0"/>
<line x1="42" y1="110" x2="52" y2="110" stroke="rgba(255,255,255,0.55)" stroke-width="1.2"/>
<line x1="42" y1="120" x2="48" y2="120" stroke="rgba(255,255,255,0.22)" stroke-width="1.0"/>
<line x1="42" y1="130" x2="56" y2="130" stroke="#28efef" stroke-width="1.6"/>
<line x1="42" y1="140" x2="48" y2="140" stroke="rgba(255,255,255,0.22)" stroke-width="1.0"/>
<line x1="42" y1="150" x2="52" y2="150" stroke="rgba(255,255,255,0.55)" stroke-width="1.2"/>
<line x1="42" y1="160" x2="48" y2="160" stroke="rgba(255,255,255,0.22)" stroke-width="1.0"/>
<line x1="42" y1="170" x2="48" y2="170" stroke="rgba(255,255,255,0.22)" stroke-width="1.0"/>
<line x1="42" y1="180" x2="48" y2="180" stroke="rgba(255,255,255,0.22)" stroke-width="1.0"/>
<line x1="42" y1="190" x2="52" y2="190" stroke="rgba(255,255,255,0.55)" stroke-width="1.2"/>
<line x1="42" y1="200" x2="48" y2="200" stroke="rgba(255,255,255,0.22)" stroke-width="1.0"/>
<line x1="42" y1="210" x2="48" y2="210" stroke="rgba(255,255,255,0.22)" stroke-width="1.0"/>
<line x1="42" y1="220" x2="48" y2="220" stroke="rgba(255,255,255,0.22)" stroke-width="1.0"/>
<line x1="42" y1="230" x2="56" y2="230" stroke="#28efef" stroke-width="1.6"/>
<line x1="42" y1="240" x2="48" y2="240" stroke="rgba(255,255,255,0.22)" stroke-width="1.0"/>
<line x1="42" y1="250" x2="48" y2="250" stroke="rgba(255,255,255,0.22)" stroke-width="1.0"/>
<line x1="42" y1="260" x2="48" y2="260" stroke="rgba(255,255,255,0.22)" stroke-width="1.0"/>
<line x1="42" y1="270" x2="52" y2="270" stroke="rgba(255,255,255,0.55)" stroke-width="1.2"/>
<line x1="42" y1="280" x2="48" y2="280" stroke="rgba(255,255,255,0.22)" stroke-width="1.0"/>
<line x1="42" y1="290" x2="48" y2="290" stroke="rgba(255,255,255,0.22)" stroke-width="1.0"/>
<line x1="42" y1="300" x2="48" y2="300" stroke="rgba(255,255,255,0.22)" stroke-width="1.0"/>
<line x1="42" y1="310" x2="52" y2="310" stroke="rgba(255,255,255,0.55)" stroke-width="1.2"/>
<line x1="42" y1="320" x2="48" y2="320" stroke="rgba(255,255,255,0.22)" stroke-width="1.0"/>
<line x1="42" y1="330" x2="56" y2="330" stroke="#28efef" stroke-width="1.6"/>
<line x1="42" y1="340" x2="48" y2="340" stroke="rgba(255,255,255,0.22)" stroke-width="1.0"/>
<line x1="42" y1="350" x2="52" y2="350" stroke="rgba(255,255,255,0.55)" stroke-width="1.2"/>
<line x1="42" y1="360" x2="48" y2="360" stroke="rgba(255,255,255,0.22)" stroke-width="1.0"/>
<line x1="42" y1="370" x2="48" y2="370" stroke="rgba(255,255,255,0.22)" stroke-width="1.0"/>
<line x1="42" y1="380" x2="48" y2="380" stroke="rgba(255,255,255,0.22)" stroke-width="1.0"/>
<line x1="42" y1="390" x2="52" y2="390" stroke="rgba(255,255,255,0.55)" stroke-width="1.2"/>
<line x1="42" y1="400" x2="48" y2="400" stroke="rgba(255,255,255,0.22)" stroke-width="1.0"/>
<line x1="42" y1="410" x2="48" y2="410" stroke="rgba(255,255,255,0.22)" stroke-width="1.0"/>
<line x1="42" y1="420" x2="48" y2="420" stroke="rgba(255,255,255,0.22)" stroke-width="1.0"/>
<line x1="42" y1="430" x2="56" y2="430" stroke="#28efef" stroke-width="1.6"/>
<line x1="42" y1="440" x2="48" y2="440" stroke="rgba(255,255,255,0.22)" stroke-width="1.0"/>
<line x1="42" y1="450" x2="48" y2="450" stroke="rgba(255,255,255,0.22)" stroke-width="1.0"/>
<line x1="42" y1="460" x2="48" y2="460" stroke="rgba(255,255,255,0.22)" stroke-width="1.0"/>
<line x1="42" y1="470" x2="52" y2="470" stroke="rgba(255,255,255,0.55)" stroke-width="1.2"/>
<line x1="42" y1="480" x2="48" y2="480" stroke="rgba(255,255,255,0.22)" stroke-width="1.0"/>
<line x1="42" y1="490" x2="48" y2="490" stroke="rgba(255,255,255,0.22)" stroke-width="1.0"/>
<line x1="42" y1="500" x2="48" y2="500" stroke="rgba(255,255,255,0.22)" stroke-width="1.0"/>
<line x1="42" y1="510" x2="52" y2="510" stroke="rgba(255,255,255,0.55)" stroke-width="1.2"/>
<line x1="42" y1="520" x2="48" y2="520" stroke="rgba(255,255,255,0.22)" stroke-width="1.0"/>
<line x1="42" y1="530" x2="56" y2="530" stroke="#28efef" stroke-width="1.6"/>
<line x1="42" y1="540" x2="48" y2="540" stroke="rgba(255,255,255,0.22)" stroke-width="1.0"/>
<line x1="42" y1="550" x2="52" y2="550" stroke="rgba(255,255,255,0.55)" stroke-width="1.2"/>
<line x1="42" y1="560" x2="48" y2="560" stroke="rgba(255,255,255,0.22)" stroke-width="1.0"/>
<line x1="42" y1="570" x2="48" y2="570" stroke="rgba(255,255,255,0.22)" stroke-width="1.0"/>
<line x1="42" y1="580" x2="48" y2="580" stroke="rgba(255,255,255,0.22)" stroke-width="1.0"/>
<line x1="928" y1="30" x2="914" y2="30" stroke="#28efef" stroke-width="1.6"/>
<line x1="928" y1="40" x2="922" y2="40" stroke="rgba(255,255,255,0.22)" stroke-width="1.0"/>
<line x1="928" y1="50" x2="922" y2="50" stroke="rgba(255,255,255,0.22)" stroke-width="1.0"/>
<line x1="928" y1="60" x2="922" y2="60" stroke="rgba(255,255,255,0.22)" stroke-width="1.0"/>
<line x1="928" y1="70" x2="918" y2="70" stroke="rgba(255,255,255,0.55)" stroke-width="1.2"/>
<line x1="928" y1="80" x2="922" y2="80" stroke="rgba(255,255,255,0.22)" stroke-width="1.0"/>
<line x1="928" y1="90" x2="922" y2="90" stroke="rgba(255,255,255,0.22)" stroke-width="1.0"/>
<line x1="928" y1="100" x2="922" y2="100" stroke="rgba(255,255,255,0.22)" stroke-width="1.0"/>
<line x1="928" y1="110" x2="918" y2="110" stroke="rgba(255,255,255,0.55)" stroke-width="1.2"/>
<line x1="928" y1="120" x2="922" y2="120" stroke="rgba(255,255,255,0.22)" stroke-width="1.0"/>
<line x1="928" y1="130" x2="914" y2="130" stroke="#28efef" stroke-width="1.6"/>
<line x1="928" y1="140" x2="922" y2="140" stroke="rgba(255,255,255,0.22)" stroke-width="1.0"/>
<line x1="928" y1="150" x2="918" y2="150" stroke="rgba(255,255,255,0.55)" stroke-width="1.2"/>
<line x1="928" y1="160" x2="922" y2="160" stroke="rgba(255,255,255,0.22)" stroke-width="1.0"/>
<line x1="928" y1="170" x2="922" y2="170" stroke="rgba(255,255,255,0.22)" stroke-width="1.0"/>
<line x1="928" y1="180" x2="922" y2="180" stroke="rgba(255,255,255,0.22)" stroke-width="1.0"/>
<line x1="928" y1="190" x2="918" y2="190" stroke="rgba(255,255,255,0.55)" stroke-width="1.2"/>
<line x1="928" y1="200" x2="922" y2="200" stroke="rgba(255,255,255,0.22)" stroke-width="1.0"/>
<line x1="928" y1="210" x2="922" y2="210" stroke="rgba(255,255,255,0.22)" stroke-width="1.0"/>
<line x1="928" y1="220" x2="922" y2="220" stroke="rgba(255,255,255,0.22)" stroke-width="1.0"/>
<line x1="928" y1="230" x2="914" y2="230" stroke="#28efef" stroke-width="1.6"/>
<line x1="928" y1="240" x2="922" y2="240" stroke="rgba(255,255,255,0.22)" stroke-width="1.0"/>
<line x1="928" y1="250" x2="922" y2="250" stroke="rgba(255,255,255,0.22)" stroke-width="1.0"/>
<line x1="928" y1="260" x2="922" y2="260" stroke="rgba(255,255,255,0.22)" stroke-width="1.0"/>
<line x1="928" y1="270" x2="918" y2="270" stroke="rgba(255,255,255,0.55)" stroke-width="1.2"/>
<line x1="928" y1="280" x2="922" y2="280" stroke="rgba(255,255,255,0.22)" stroke-width="1.0"/>
<line x1="928" y1="290" x2="922" y2="290" stroke="rgba(255,255,255,0.22)" stroke-width="1.0"/>
<line x1="928" y1="300" x2="922" y2="300" stroke="rgba(255,255,255,0.22)" stroke-width="1.0"/>
<line x1="928" y1="310" x2="918" y2="310" stroke="rgba(255,255,255,0.55)" stroke-width="1.2"/>
<line x1="928" y1="320" x2="922" y2="320" stroke="rgba(255,255,255,0.22)" stroke-width="1.0"/>
<line x1="928" y1="330" x2="914" y2="330" stroke="#28efef" stroke-width="1.6"/>
<line x1="928" y1="340" x2="922" y2="340" stroke="rgba(255,255,255,0.22)" stroke-width="1.0"/>
<line x1="928" y1="350" x2="918" y2="350" stroke="rgba(255,255,255,0.55)" stroke-width="1.2"/>
<line x1="928" y1="360" x2="922" y2="360" stroke="rgba(255,255,255,0.22)" stroke-width="1.0"/>
<line x1="928" y1="370" x2="922" y2="370" stroke="rgba(255,255,255,0.22)" stroke-width="1.0"/>
<line x1="928" y1="380" x2="922" y2="380" stroke="rgba(255,255,255,0.22)" stroke-width="1.0"/>
<line x1="928" y1="390" x2="918" y2="390" stroke="rgba(255,255,255,0.55)" stroke-width="1.2"/>
<line x1="928" y1="400" x2="922" y2="400" stroke="rgba(255,255,255,0.22)" stroke-width="1.0"/>
<line x1="928" y1="410" x2="922" y2="410" stroke="rgba(255,255,255,0.22)" stroke-width="1.0"/>
<line x1="928" y1="420" x2="922" y2="420" stroke="rgba(255,255,255,0.22)" stroke-width="1.0"/>
<line x1="928" y1="430" x2="914" y2="430" stroke="#28efef" stroke-width="1.6"/>
<line x1="928" y1="440" x2="922" y2="440" stroke="rgba(255,255,255,0.22)" stroke-width="1.0"/>
<line x1="928" y1="450" x2="922" y2="450" stroke="rgba(255,255,255,0.22)" stroke-width="1.0"/>
<line x1="928" y1="460" x2="922" y2="460" stroke="rgba(255,255,255,0.22)" stroke-width="1.0"/>
<line x1="928" y1="470" x2="918" y2="470" stroke="rgba(255,255,255,0.55)" stroke-width="1.2"/>
<line x1="928" y1="480" x2="922" y2="480" stroke="rgba(255,255,255,0.22)" stroke-width="1.0"/>
<line x1="928" y1="490" x2="922" y2="490" stroke="rgba(255,255,255,0.22)" stroke-width="1.0"/>
<line x1="928" y1="500" x2="922" y2="500" stroke="rgba(255,255,255,0.22)" stroke-width="1.0"/>
<line x1="928" y1="510" x2="918" y2="510" stroke="rgba(255,255,255,0.55)" stroke-width="1.2"/>
<line x1="928" y1="520" x2="922" y2="520" stroke="rgba(255,255,255,0.22)" stroke-width="1.0"/>
<line x1="928" y1="530" x2="914" y2="530" stroke="#28efef" stroke-width="1.6"/>
<line x1="928" y1="540" x2="922" y2="540" stroke="rgba(255,255,255,0.22)" stroke-width="1.0"/>
<line x1="928" y1="550" x2="918" y2="550" stroke="rgba(255,255,255,0.55)" stroke-width="1.2"/>
<line x1="928" y1="560" x2="922" y2="560" stroke="rgba(255,255,255,0.22)" stroke-width="1.0"/>
<line x1="928" y1="570" x2="922" y2="570" stroke="rgba(255,255,255,0.22)" stroke-width="1.0"/>
<line x1="928" y1="580" x2="922" y2="580" stroke="rgba(255,255,255,0.22)" stroke-width="1.0"/>
<line x1="80" y1="82" x2="96" y2="82" stroke="#28efef" stroke-width="1.6"/><text x="106" y="87" font-family="Noto Sans CJK TC Light" font-size="14" fill="rgba(255,255,255,0.7)">醫療人工智慧 × 生醫工程</text>
<text x="80" y="252" font-family="Noto Sans CJK TC Light" font-size="78" fill="rgba(34,200,255,0.9)" filter="url(#glow)">吳 國 禎</text><text x="80" y="252" font-family="Noto Sans CJK TC Light" font-size="78" fill="#ffffff">吳 國 禎</text><text x="398" y="252" font-family="Noto Sans CJK TC Light" font-size="24" fill="#28efef">博士</text><text x="80" y="286" font-family="Amiri" font-size="19" fill="rgba(255,255,255,0.6)">Kuo-Chen Wu, Ph.D.</text>
<line x1="80.0" y1="300" x2="420.0" y2="300" stroke="url(#bl)" stroke-width="1.4" filter="url(#soft)"/>
<line x1="82.0" y1="295" x2="82.0" y2="305" stroke="rgba(255,255,255,0.5)" stroke-width="1"/>
<line x1="418.0" y1="295" x2="418.0" y2="305" stroke="rgba(255,255,255,0.5)" stroke-width="1"/>
<circle cx="250" cy="300" r="7" fill="rgba(40,239,239,0.3)"/>
<circle cx="250" cy="300" r="3" fill="#28efef"/>
<rect x="544.4" y="386.4" width="139.2" height="139.2" rx="6" fill="rgba(3,8,16,0.94)" stroke="rgba(255,255,255,0.18)" stroke-width="1"/>
<rect x="558.00" y="400.00" width="23.91" height="3.54" fill="#f2fbfc"/>
<rect x="585.15" y="400.00" width="3.54" height="3.54" fill="#f2fbfc"/>
<rect x="612.30" y="400.00" width="13.73" height="3.54" fill="#f2fbfc"/>
<rect x="629.27" y="400.00" width="13.73" height="3.54" fill="#f2fbfc"/>
<rect x="646.24" y="400.00" width="23.91" height="3.54" fill="#f2fbfc"/>
<rect x="558.00" y="403.39" width="3.54" height="3.54" fill="#f2fbfc"/>
<rect x="578.36" y="403.39" width="3.54" height="3.54" fill="#f2fbfc"/>
<rect x="588.55" y="403.39" width="3.54" height="3.54" fill="#f2fbfc"/>
<rect x="598.73" y="403.39" width="10.33" height="3.54" fill="#f2fbfc"/>
<rect x="612.30" y="403.39" width="3.54" height="3.54" fill="#f2fbfc"/>
<rect x="622.48" y="403.39" width="3.54" height="3.54" fill="#f2fbfc"/>
<rect x="629.27" y="403.39" width="3.54" height="3.54" fill="#f2fbfc"/>
<rect x="636.06" y="403.39" width="3.54" height="3.54" fill="#f2fbfc"/>
<rect x="646.24" y="403.39" width="3.54" height="3.54" fill="#f2fbfc"/>
<rect x="666.61" y="403.39" width="3.54" height="3.54" fill="#f2fbfc"/>
<rect x="558.00" y="406.79" width="3.54" height="3.54" fill="#f2fbfc"/>
<rect x="564.79" y="406.79" width="10.33" height="3.54" fill="#f2fbfc"/>
<rect x="578.36" y="406.79" width="3.54" height="3.54" fill="#f2fbfc"/>
<rect x="588.55" y="406.79" width="13.73" height="3.54" fill="#f2fbfc"/>
<rect x="608.91" y="406.79" width="3.54" height="3.54" fill="#f2fbfc"/>
<rect x="619.09" y="406.79" width="3.54" height="3.54" fill="#f2fbfc"/>
<rect x="625.88" y="406.79" width="3.54" height="3.54" fill="#f2fbfc"/>
<rect x="636.06" y="406.79" width="6.94" height="3.54" fill="#f2fbfc"/>
<rect x="646.24" y="406.79" width="3.54" height="3.54" fill="#f2fbfc"/>
<rect x="653.03" y="406.79" width="10.33" height="3.54" fill="#f2fbfc"/>
<rect x="666.61" y="406.79" width="3.54" height="3.54" fill="#f2fbfc"/>
<rect x="558.00" y="410.18" width="3.54" height="3.54" fill="#f2fbfc"/>
<rect x="564.79" y="410.18" width="10.33" height="3.54" fill="#f2fbfc"/>
<rect x="578.36" y="410.18" width="3.54" height="3.54" fill="#f2fbfc"/>
<rect x="585.15" y="410.18" width="6.94" height="3.54" fill="#f2fbfc"/>
<rect x="595.33" y="410.18" width="10.33" height="3.54" fill="#f2fbfc"/>
<rect x="612.30" y="410.18" width="6.94" height="3.54" fill="#f2fbfc"/>
<rect x="622.48" y="410.18" width="3.54" height="3.54" fill="#f2fbfc"/>
<rect x="632.67" y="410.18" width="3.54" height="3.54" fill="#f2fbfc"/>
<rect x="646.24" y="410.18" width="3.54" height="3.54" fill="#f2fbfc"/>
<rect x="653.03" y="410.18" width="10.33" height="3.54" fill="#f2fbfc"/>
<rect x="666.61" y="410.18" width="3.54" height="3.54" fill="#f2fbfc"/>
<rect x="558.00" y="413.58" width="3.54" height="3.54" fill="#f2fbfc"/>
<rect x="564.79" y="413.58" width="10.33" height="3.54" fill="#f2fbfc"/>
<rect x="578.36" y="413.58" width="3.54" height="3.54" fill="#f2fbfc"/>
<rect x="591.94" y="413.58" width="3.54" height="3.54" fill="#f2fbfc"/>
<rect x="602.12" y="413.58" width="3.54" height="3.54" fill="#f2fbfc"/>
<rect x="622.48" y="413.58" width="3.54" height="3.54" fill="#f2fbfc"/>
<rect x="629.27" y="413.58" width="3.54" height="3.54" fill="#f2fbfc"/>
<rect x="636.06" y="413.58" width="3.54" height="3.54" fill="#f2fbfc"/>
<rect x="646.24" y="413.58" width="3.54" height="3.54" fill="#f2fbfc"/>
<rect x="653.03" y="413.58" width="10.33" height="3.54" fill="#f2fbfc"/>
<rect x="666.61" y="413.58" width="3.54" height="3.54" fill="#f2fbfc"/>
<rect x="558.00" y="416.97" width="3.54" height="3.54" fill="#f2fbfc"/>
<rect x="578.36" y="416.97" width="3.54" height="3.54" fill="#f2fbfc"/>
<rect x="595.33" y="416.97" width="3.54" height="3.54" fill="#f2fbfc"/>
<rect x="602.12" y="416.97" width="6.94" height="3.54" fill="#f2fbfc"/>
<rect x="619.09" y="416.97" width="10.33" height="3.54" fill="#f2fbfc"/>
<rect x="632.67" y="416.97" width="10.33" height="3.54" fill="#f2fbfc"/>
<rect x="646.24" y="416.97" width="3.54" height="3.54" fill="#f2fbfc"/>
<rect x="666.61" y="416.97" width="3.54" height="3.54" fill="#f2fbfc"/>
<rect x="558.00" y="420.36" width="23.91" height="3.54" fill="#f2fbfc"/>
<rect x="585.15" y="420.36" width="3.54" height="3.54" fill="#f2fbfc"/>
<rect x="591.94" y="420.36" width="3.54" height="3.54" fill="#f2fbfc"/>
<rect x="598.73" y="420.36" width="3.54" height="3.54" fill="#f2fbfc"/>
<rect x="605.52" y="420.36" width="3.54" height="3.54" fill="#f2fbfc"/>
<rect x="612.30" y="420.36" width="3.54" height="3.54" fill="#f2fbfc"/>
<rect x="619.09" y="420.36" width="3.54" height="3.54" fill="#f2fbfc"/>
<rect x="625.88" y="420.36" width="3.54" height="3.54" fill="#f2fbfc"/>
<rect x="632.67" y="420.36" width="3.54" height="3.54" fill="#f2fbfc"/>
<rect x="639.45" y="420.36" width="3.54" height="3.54" fill="#f2fbfc"/>
<rect x="646.24" y="420.36" width="23.91" height="3.54" fill="#f2fbfc"/>
<rect x="591.94" y="423.76" width="10.33" height="3.54" fill="#f2fbfc"/>
<rect x="605.52" y="423.76" width="6.94" height="3.54" fill="#f2fbfc"/>
<rect x="629.27" y="423.76" width="3.54" height="3.54" fill="#f2fbfc"/>
<rect x="636.06" y="423.76" width="3.54" height="3.54" fill="#f2fbfc"/>
<rect x="564.79" y="427.15" width="3.54" height="3.54" fill="#f2fbfc"/>
<rect x="571.58" y="427.15" width="10.33" height="3.54" fill="#f2fbfc"/>
<rect x="585.15" y="427.15" width="3.54" height="3.54" fill="#f2fbfc"/>
<rect x="602.12" y="427.15" width="3.54" height="3.54" fill="#f2fbfc"/>
<rect x="612.30" y="427.15" width="3.54" height="3.54" fill="#f2fbfc"/>
<rect x="622.48" y="427.15" width="3.54" height="3.54" fill="#f2fbfc"/>
<rect x="629.27" y="427.15" width="3.54" height="3.54" fill="#f2fbfc"/>
<rect x="636.06" y="427.15" width="10.33" height="3.54" fill="#f2fbfc"/>
<rect x="656.42" y="427.15" width="3.54" height="3.54" fill="#f2fbfc"/>
<rect x="666.61" y="427.15" width="3.54" height="3.54" fill="#f2fbfc"/>
<rect x="558.00" y="430.55" width="3.54" height="3.54" fill="#f2fbfc"/>
<rect x="564.79" y="430.55" width="13.73" height="3.54" fill="#f2fbfc"/>
<rect x="585.15" y="430.55" width="3.54" height="3.54" fill="#f2fbfc"/>
<rect x="595.33" y="430.55" width="17.12" height="3.54" fill="#f2fbfc"/>
<rect x="615.70" y="430.55" width="3.54" height="3.54" fill="#f2fbfc"/>
<rect x="622.48" y="430.55" width="6.94" height="3.54" fill="#f2fbfc"/>
<rect x="646.24" y="430.55" width="3.54" height="3.54" fill="#f2fbfc"/>
<rect x="656.42" y="430.55" width="3.54" height="3.54" fill="#f2fbfc"/>
<rect x="663.21" y="430.55" width="6.94" height="3.54" fill="#f2fbfc"/>
<rect x="561.39" y="433.94" width="6.94" height="3.54" fill="#f2fbfc"/>
<rect x="574.97" y="433.94" width="17.12" height="3.54" fill="#f2fbfc"/>
<rect x="595.33" y="433.94" width="10.33" height="3.54" fill="#f2fbfc"/>
<rect x="612.30" y="433.94" width="3.54" height="3.54" fill="#f2fbfc"/>
<rect x="619.09" y="433.94" width="13.73" height="3.54" fill="#f2fbfc"/>
<rect x="653.03" y="433.94" width="17.12" height="3.54" fill="#f2fbfc"/>
<rect x="561.39" y="437.33" width="6.94" height="3.54" fill="#f2fbfc"/>
<rect x="574.97" y="437.33" width="3.54" height="3.54" fill="#f2fbfc"/>
<rect x="585.15" y="437.33" width="3.54" height="3.54" fill="#f2fbfc"/>
<rect x="598.73" y="437.33" width="3.54" height="3.54" fill="#f2fbfc"/>
<rect x="608.91" y="437.33" width="6.94" height="3.54" fill="#f2fbfc"/>
<rect x="622.48" y="437.33" width="3.54" height="3.54" fill="#f2fbfc"/>
<rect x="629.27" y="437.33" width="6.94" height="3.54" fill="#f2fbfc"/>
<rect x="639.45" y="437.33" width="3.54" height="3.54" fill="#f2fbfc"/>
<rect x="663.21" y="437.33" width="6.94" height="3.54" fill="#f2fbfc"/>
<rect x="558.00" y="440.73" width="6.94" height="3.54" fill="#f2fbfc"/>
<rect x="571.58" y="440.73" width="3.54" height="3.54" fill="#f2fbfc"/>
<rect x="578.36" y="440.73" width="3.54" height="3.54" fill="#f2fbfc"/>
<rect x="585.15" y="440.73" width="6.94" height="3.54" fill="#f2fbfc"/>
<rect x="595.33" y="440.73" width="6.94" height="3.54" fill="#f2fbfc"/>
<rect x="605.52" y="440.73" width="10.33" height="3.54" fill="#f2fbfc"/>
<rect x="622.48" y="440.73" width="3.54" height="3.54" fill="#f2fbfc"/>
<rect x="629.27" y="440.73" width="6.94" height="3.54" fill="#f2fbfc"/>
<rect x="639.45" y="440.73" width="10.33" height="3.54" fill="#f2fbfc"/>
<rect x="666.61" y="440.73" width="3.54" height="3.54" fill="#f2fbfc"/>
<rect x="558.00" y="444.12" width="17.12" height="3.54" fill="#f2fbfc"/>
<rect x="585.15" y="444.12" width="3.54" height="3.54" fill="#f2fbfc"/>
<rect x="591.94" y="444.12" width="6.94" height="3.54" fill="#f2fbfc"/>
<rect x="602.12" y="444.12" width="3.54" height="3.54" fill="#f2fbfc"/>
<rect x="612.30" y="444.12" width="10.33" height="3.54" fill="#f2fbfc"/>
<rect x="625.88" y="444.12" width="3.54" height="3.54" fill="#f2fbfc"/>
<rect x="639.45" y="444.12" width="10.33" height="3.54" fill="#f2fbfc"/>
<rect x="663.21" y="444.12" width="6.94" height="3.54" fill="#f2fbfc"/>
<rect x="561.39" y="447.52" width="3.54" height="3.54" fill="#f2fbfc"/>
<rect x="571.58" y="447.52" width="3.54" height="3.54" fill="#f2fbfc"/>
<rect x="578.36" y="447.52" width="3.54" height="3.54" fill="#f2fbfc"/>
<rect x="588.55" y="447.52" width="3.54" height="3.54" fill="#f2fbfc"/>
<rect x="595.33" y="447.52" width="6.94" height="3.54" fill="#f2fbfc"/>
<rect x="605.52" y="447.52" width="10.33" height="3.54" fill="#f2fbfc"/>
<rect x="622.48" y="447.52" width="3.54" height="3.54" fill="#f2fbfc"/>
<rect x="629.27" y="447.52" width="3.54" height="3.54" fill="#f2fbfc"/>
<rect x="646.24" y="447.52" width="10.33" height="3.54" fill="#f2fbfc"/>
<rect x="659.82" y="447.52" width="10.33" height="3.54" fill="#f2fbfc"/>
<rect x="568.18" y="450.91" width="6.94" height="3.54" fill="#f2fbfc"/>
<rect x="581.76" y="450.91" width="3.54" height="3.54" fill="#f2fbfc"/>
<rect x="591.94" y="450.91" width="3.54" height="3.54" fill="#f2fbfc"/>
<rect x="608.91" y="450.91" width="10.33" height="3.54" fill="#f2fbfc"/>
<rect x="622.48" y="450.91" width="13.73" height="3.54" fill="#f2fbfc"/>
<rect x="642.85" y="450.91" width="6.94" height="3.54" fill="#f2fbfc"/>
<rect x="663.21" y="450.91" width="6.94" height="3.54" fill="#f2fbfc"/>
<rect x="571.58" y="454.30" width="10.33" height="3.54" fill="#f2fbfc"/>
<rect x="595.33" y="454.30" width="13.73" height="3.54" fill="#f2fbfc"/>
<rect x="615.70" y="454.30" width="20.51" height="3.54" fill="#f2fbfc"/>
<rect x="642.85" y="454.30" width="6.94" height="3.54" fill="#f2fbfc"/>
<rect x="666.61" y="454.30" width="3.54" height="3.54" fill="#f2fbfc"/>
<rect x="558.00" y="457.70" width="6.94" height="3.54" fill="#f2fbfc"/>
<rect x="571.58" y="457.70" width="3.54" height="3.54" fill="#f2fbfc"/>
<rect x="581.76" y="457.70" width="3.54" height="3.54" fill="#f2fbfc"/>
<rect x="598.73" y="457.70" width="3.54" height="3.54" fill="#f2fbfc"/>
<rect x="615.70" y="457.70" width="3.54" height="3.54" fill="#f2fbfc"/>
<rect x="642.85" y="457.70" width="6.94" height="3.54" fill="#f2fbfc"/>
<rect x="656.42" y="457.70" width="6.94" height="3.54" fill="#f2fbfc"/>
<rect x="666.61" y="457.70" width="3.54" height="3.54" fill="#f2fbfc"/>
<rect x="558.00" y="461.09" width="6.94" height="3.54" fill="#f2fbfc"/>
<rect x="571.58" y="461.09" width="20.51" height="3.54" fill="#f2fbfc"/>
<rect x="595.33" y="461.09" width="3.54" height="3.54" fill="#f2fbfc"/>
<rect x="608.91" y="461.09" width="3.54" height="3.54" fill="#f2fbfc"/>
<rect x="615.70" y="461.09" width="10.33" height="3.54" fill="#f2fbfc"/>
<rect x="632.67" y="461.09" width="3.54" height="3.54" fill="#f2fbfc"/>
<rect x="646.24" y="461.09" width="3.54" height="3.54" fill="#f2fbfc"/>
<rect x="659.82" y="461.09" width="10.33" height="3.54" fill="#f2fbfc"/>
<rect x="561.39" y="464.48" width="3.54" height="3.54" fill="#f2fbfc"/>
<rect x="568.18" y="464.48" width="3.54" height="3.54" fill="#f2fbfc"/>
<rect x="581.76" y="464.48" width="6.94" height="3.54" fill="#f2fbfc"/>
<rect x="591.94" y="464.48" width="6.94" height="3.54" fill="#f2fbfc"/>
<rect x="602.12" y="464.48" width="3.54" height="3.54" fill="#f2fbfc"/>
<rect x="608.91" y="464.48" width="3.54" height="3.54" fill="#f2fbfc"/>
<rect x="615.70" y="464.48" width="10.33" height="3.54" fill="#f2fbfc"/>
<rect x="629.27" y="464.48" width="3.54" height="3.54" fill="#f2fbfc"/>
<rect x="642.85" y="464.48" width="6.94" height="3.54" fill="#f2fbfc"/>
<rect x="653.03" y="464.48" width="3.54" height="3.54" fill="#f2fbfc"/>
<rect x="561.39" y="467.88" width="6.94" height="3.54" fill="#f2fbfc"/>
<rect x="571.58" y="467.88" width="3.54" height="3.54" fill="#f2fbfc"/>
<rect x="578.36" y="467.88" width="6.94" height="3.54" fill="#f2fbfc"/>
<rect x="588.55" y="467.88" width="6.94" height="3.54" fill="#f2fbfc"/>
<rect x="598.73" y="467.88" width="6.94" height="3.54" fill="#f2fbfc"/>
<rect x="608.91" y="467.88" width="3.54" height="3.54" fill="#f2fbfc"/>
<rect x="615.70" y="467.88" width="3.54" height="3.54" fill="#f2fbfc"/>
<rect x="622.48" y="467.88" width="3.54" height="3.54" fill="#f2fbfc"/>
<rect x="629.27" y="467.88" width="3.54" height="3.54" fill="#f2fbfc"/>
<rect x="639.45" y="467.88" width="3.54" height="3.54" fill="#f2fbfc"/>
<rect x="646.24" y="467.88" width="3.54" height="3.54" fill="#f2fbfc"/>
<rect x="656.42" y="467.88" width="3.54" height="3.54" fill="#f2fbfc"/>
<rect x="571.58" y="471.27" width="3.54" height="3.54" fill="#f2fbfc"/>
<rect x="581.76" y="471.27" width="3.54" height="3.54" fill="#f2fbfc"/>
<rect x="588.55" y="471.27" width="10.33" height="3.54" fill="#f2fbfc"/>
<rect x="605.52" y="471.27" width="3.54" height="3.54" fill="#f2fbfc"/>
<rect x="619.09" y="471.27" width="3.54" height="3.54" fill="#f2fbfc"/>
<rect x="625.88" y="471.27" width="10.33" height="3.54" fill="#f2fbfc"/>
<rect x="639.45" y="471.27" width="10.33" height="3.54" fill="#f2fbfc"/>
<rect x="659.82" y="471.27" width="10.33" height="3.54" fill="#f2fbfc"/>
<rect x="558.00" y="474.67" width="3.54" height="3.54" fill="#f2fbfc"/>
<rect x="564.79" y="474.67" width="3.54" height="3.54" fill="#f2fbfc"/>
<rect x="571.58" y="474.67" width="3.54" height="3.54" fill="#f2fbfc"/>
<rect x="578.36" y="474.67" width="3.54" height="3.54" fill="#f2fbfc"/>
<rect x="585.15" y="474.67" width="6.94" height="3.54" fill="#f2fbfc"/>
<rect x="602.12" y="474.67" width="10.33" height="3.54" fill="#f2fbfc"/>
<rect x="622.48" y="474.67" width="3.54" height="3.54" fill="#f2fbfc"/>
<rect x="629.27" y="474.67" width="3.54" height="3.54" fill="#f2fbfc"/>
<rect x="639.45" y="474.67" width="3.54" height="3.54" fill="#f2fbfc"/>
<rect x="646.24" y="474.67" width="3.54" height="3.54" fill="#f2fbfc"/>
<rect x="656.42" y="474.67" width="3.54" height="3.54" fill="#f2fbfc"/>
<rect x="663.21" y="474.67" width="6.94" height="3.54" fill="#f2fbfc"/>
<rect x="561.39" y="478.06" width="10.33" height="3.54" fill="#f2fbfc"/>
<rect x="585.15" y="478.06" width="6.94" height="3.54" fill="#f2fbfc"/>
<rect x="605.52" y="478.06" width="13.73" height="3.54" fill="#f2fbfc"/>
<rect x="622.48" y="478.06" width="3.54" height="3.54" fill="#f2fbfc"/>
<rect x="629.27" y="478.06" width="6.94" height="3.54" fill="#f2fbfc"/>
<rect x="639.45" y="478.06" width="6.94" height="3.54" fill="#f2fbfc"/>
<rect x="649.64" y="478.06" width="3.54" height="3.54" fill="#f2fbfc"/>
<rect x="663.21" y="478.06" width="6.94" height="3.54" fill="#f2fbfc"/>
<rect x="558.00" y="481.45" width="3.54" height="3.54" fill="#f2fbfc"/>
<rect x="564.79" y="481.45" width="10.33" height="3.54" fill="#f2fbfc"/>
<rect x="578.36" y="481.45" width="3.54" height="3.54" fill="#f2fbfc"/>
<rect x="588.55" y="481.45" width="6.94" height="3.54" fill="#f2fbfc"/>
<rect x="612.30" y="481.45" width="10.33" height="3.54" fill="#f2fbfc"/>
<rect x="629.27" y="481.45" width="3.54" height="3.54" fill="#f2fbfc"/>
<rect x="636.06" y="481.45" width="20.51" height="3.54" fill="#f2fbfc"/>
<rect x="666.61" y="481.45" width="3.54" height="3.54" fill="#f2fbfc"/>
<rect x="585.15" y="484.85" width="6.94" height="3.54" fill="#f2fbfc"/>
<rect x="595.33" y="484.85" width="6.94" height="3.54" fill="#f2fbfc"/>
<rect x="608.91" y="484.85" width="10.33" height="3.54" fill="#f2fbfc"/>
<rect x="639.45" y="484.85" width="3.54" height="3.54" fill="#f2fbfc"/>
<rect x="653.03" y="484.85" width="10.33" height="3.54" fill="#f2fbfc"/>
<rect x="666.61" y="484.85" width="3.54" height="3.54" fill="#f2fbfc"/>
<rect x="558.00" y="488.24" width="23.91" height="3.54" fill="#f2fbfc"/>
<rect x="588.55" y="488.24" width="3.54" height="3.54" fill="#f2fbfc"/>
<rect x="595.33" y="488.24" width="3.54" height="3.54" fill="#f2fbfc"/>
<rect x="602.12" y="488.24" width="6.94" height="3.54" fill="#f2fbfc"/>
<rect x="612.30" y="488.24" width="3.54" height="3.54" fill="#f2fbfc"/>
<rect x="619.09" y="488.24" width="3.54" height="3.54" fill="#f2fbfc"/>
<rect x="629.27" y="488.24" width="3.54" height="3.54" fill="#f2fbfc"/>
<rect x="636.06" y="488.24" width="6.94" height="3.54" fill="#f2fbfc"/>
<rect x="646.24" y="488.24" width="3.54" height="3.54" fill="#f2fbfc"/>
<rect x="653.03" y="488.24" width="17.12" height="3.54" fill="#f2fbfc"/>
<rect x="558.00" y="491.64" width="3.54" height="3.54" fill="#f2fbfc"/>
<rect x="578.36" y="491.64" width="3.54" height="3.54" fill="#f2fbfc"/>
<rect x="585.15" y="491.64" width="3.54" height="3.54" fill="#f2fbfc"/>
<rect x="598.73" y="491.64" width="10.33" height="3.54" fill="#f2fbfc"/>
<rect x="612.30" y="491.64" width="6.94" height="3.54" fill="#f2fbfc"/>
<rect x="625.88" y="491.64" width="10.33" height="3.54" fill="#f2fbfc"/>
<rect x="639.45" y="491.64" width="3.54" height="3.54" fill="#f2fbfc"/>
<rect x="653.03" y="491.64" width="3.54" height="3.54" fill="#f2fbfc"/>
<rect x="666.61" y="491.64" width="3.54" height="3.54" fill="#f2fbfc"/>
<rect x="558.00" y="495.03" width="3.54" height="3.54" fill="#f2fbfc"/>
<rect x="564.79" y="495.03" width="10.33" height="3.54" fill="#f2fbfc"/>
<rect x="578.36" y="495.03" width="3.54" height="3.54" fill="#f2fbfc"/>
<rect x="585.15" y="495.03" width="10.33" height="3.54" fill="#f2fbfc"/>
<rect x="612.30" y="495.03" width="3.54" height="3.54" fill="#f2fbfc"/>
<rect x="622.48" y="495.03" width="3.54" height="3.54" fill="#f2fbfc"/>
<rect x="632.67" y="495.03" width="3.54" height="3.54" fill="#f2fbfc"/>
<rect x="639.45" y="495.03" width="17.12" height="3.54" fill="#f2fbfc"/>
<rect x="663.21" y="495.03" width="3.54" height="3.54" fill="#f2fbfc"/>
<rect x="558.00" y="498.42" width="3.54" height="3.54" fill="#f2fbfc"/>
<rect x="564.79" y="498.42" width="10.33" height="3.54" fill="#f2fbfc"/>
<rect x="578.36" y="498.42" width="3.54" height="3.54" fill="#f2fbfc"/>
<rect x="591.94" y="498.42" width="6.94" height="3.54" fill="#f2fbfc"/>
<rect x="602.12" y="498.42" width="3.54" height="3.54" fill="#f2fbfc"/>
<rect x="612.30" y="498.42" width="10.33" height="3.54" fill="#f2fbfc"/>
<rect x="629.27" y="498.42" width="3.54" height="3.54" fill="#f2fbfc"/>
<rect x="639.45" y="498.42" width="3.54" height="3.54" fill="#f2fbfc"/>
<rect x="653.03" y="498.42" width="17.12" height="3.54" fill="#f2fbfc"/>
<rect x="558.00" y="501.82" width="3.54" height="3.54" fill="#f2fbfc"/>
<rect x="564.79" y="501.82" width="10.33" height="3.54" fill="#f2fbfc"/>
<rect x="578.36" y="501.82" width="3.54" height="3.54" fill="#f2fbfc"/>
<rect x="585.15" y="501.82" width="6.94" height="3.54" fill="#f2fbfc"/>
<rect x="595.33" y="501.82" width="6.94" height="3.54" fill="#f2fbfc"/>
<rect x="605.52" y="501.82" width="13.73" height="3.54" fill="#f2fbfc"/>
<rect x="622.48" y="501.82" width="3.54" height="3.54" fill="#f2fbfc"/>
<rect x="629.27" y="501.82" width="3.54" height="3.54" fill="#f2fbfc"/>
<rect x="636.06" y="501.82" width="3.54" height="3.54" fill="#f2fbfc"/>
<rect x="642.85" y="501.82" width="3.54" height="3.54" fill="#f2fbfc"/>
<rect x="649.64" y="501.82" width="6.94" height="3.54" fill="#f2fbfc"/>
<rect x="659.82" y="501.82" width="3.54" height="3.54" fill="#f2fbfc"/>
<rect x="666.61" y="501.82" width="3.54" height="3.54" fill="#f2fbfc"/>
<rect x="558.00" y="505.21" width="3.54" height="3.54" fill="#f2fbfc"/>
<rect x="578.36" y="505.21" width="3.54" height="3.54" fill="#f2fbfc"/>
<rect x="595.33" y="505.21" width="6.94" height="3.54" fill="#f2fbfc"/>
<rect x="605.52" y="505.21" width="3.54" height="3.54" fill="#f2fbfc"/>
<rect x="615.70" y="505.21" width="3.54" height="3.54" fill="#f2fbfc"/>
<rect x="629.27" y="505.21" width="3.54" height="3.54" fill="#f2fbfc"/>
<rect x="639.45" y="505.21" width="3.54" height="3.54" fill="#f2fbfc"/>
<rect x="646.24" y="505.21" width="6.94" height="3.54" fill="#f2fbfc"/>
<rect x="663.21" y="505.21" width="3.54" height="3.54" fill="#f2fbfc"/>
<rect x="558.00" y="508.61" width="23.91" height="3.54" fill="#f2fbfc"/>
<rect x="588.55" y="508.61" width="10.33" height="3.54" fill="#f2fbfc"/>
<rect x="602.12" y="508.61" width="3.54" height="3.54" fill="#f2fbfc"/>
<rect x="612.30" y="508.61" width="3.54" height="3.54" fill="#f2fbfc"/>
<rect x="619.09" y="508.61" width="3.54" height="3.54" fill="#f2fbfc"/>
<rect x="625.88" y="508.61" width="6.94" height="3.54" fill="#f2fbfc"/>
<rect x="636.06" y="508.61" width="6.94" height="3.54" fill="#f2fbfc"/>
<rect x="649.64" y="508.61" width="10.33" height="3.54" fill="#f2fbfc"/>
<rect x="663.21" y="508.61" width="6.94" height="3.54" fill="#f2fbfc"/>
<text x="80" y="346" font-family="Noto Sans CJK TC Light" font-size="20" fill="rgba(255,255,255,0.86)">智富生醫科技股份有限公司　技術長</text>
<text x="80" y="382" font-family="Noto Sans CJK TC Light" font-size="20" fill="rgba(255,255,255,0.86)">國立臺灣師範大學　博士後研究員</text>
<text x="80" y="418" font-family="Noto Sans CJK TC Light" font-size="20" fill="rgba(255,255,255,0.86)">國立勤益科技大學　教授</text>
<text x="80" y="458" font-family="Noto Sans CJK TC Light" font-size="13" fill="rgba(255,255,255,0.55)">電 話</text>
<text x="172" y="458" font-family="Amiri" font-size="17" fill="#eaf7f8">+886 925-595-900</text>
<text x="80" y="492" font-family="Noto Sans CJK TC Light" font-size="13" fill="rgba(255,255,255,0.55)">信 箱</text>
<text x="172" y="492" font-family="Amiri" font-size="17" fill="#eaf7f8">d09945002@ntu.edu.tw</text>
<text x="80" y="526" font-family="Noto Sans CJK TC Light" font-size="13" fill="rgba(255,255,255,0.55)">網 站</text>
<text x="172" y="526" font-family="Amiri" font-size="17" fill="#eaf7f8">robinsixrainbow.github.io</text>
<text x="898" y="506" font-family="Amiri" font-size="15" fill="rgba(255,255,255,0.5)" text-anchor="end">Summer Triangle · Epoch J2034.514</text><text x="898" y="524" font-family="Amiri" font-size="12" fill="rgba(255,255,255,0.38)" text-anchor="end">2034·07·07 23:24 JST · Vega culmination · 34°42′N 137°44′E</text>
</svg>